<?xml version="1.0" encoding="UTF-8" standalone="no"?>
<!-- Created with Inkscape (http://www.inkscape.org/) -->

<svg
   version="1.1"
   id="svg2"
   width="1000"
   height="666.66669"
   viewBox="0 0 1000 666.66669"
   sodipodi:docname="6325252.ai"
   xmlns:inkscape="http://www.inkscape.org/namespaces/inkscape"
   xmlns:sodipodi="http://sodipodi.sourceforge.net/DTD/sodipodi-0.dtd"
   xmlns="http://www.w3.org/2000/svg"
   xmlns:svg="http://www.w3.org/2000/svg">
  <defs
     id="defs6">
    <clipPath
       clipPathUnits="userSpaceOnUse"
       id="clipPath16">
      <path
         d="M 0,500 H 750 V 0 H 0 Z"
         id="path14" />
    </clipPath>
    <clipPath
       clipPathUnits="userSpaceOnUse"
       id="clipPath28">
      <path
         d="M 42.3585,460.165 H 707.613 V 63.8549 H 42.3585 Z"
         id="path26" />
    </clipPath>
    <clipPath
       clipPathUnits="userSpaceOnUse"
       id="clipPath44">
      <path
         d="M 0,500 H 750 V 0 H 0 Z"
         id="path42" />
    </clipPath>
    <clipPath
       clipPathUnits="userSpaceOnUse"
       id="clipPath68">
      <path
         d="M 0,500 H 750 V 0 H 0 Z"
         id="path66" />
    </clipPath>
    <clipPath
       clipPathUnits="userSpaceOnUse"
       id="clipPath92">
      <path
         d="M 0,500 H 750 V 0 H 0 Z"
         id="path90" />
    </clipPath>
    <clipPath
       clipPathUnits="userSpaceOnUse"
       id="clipPath164">
      <path
         d="M 0,500 H 750 V 0 H 0 Z"
         id="path162" />
    </clipPath>
    <clipPath
       clipPathUnits="userSpaceOnUse"
       id="clipPath192">
      <path
         d="m 574.956,282.566 h 60.561 V 181.85 h -60.561 z"
         id="path190" />
    </clipPath>
    <clipPath
       clipPathUnits="userSpaceOnUse"
       id="clipPath216">
      <path
         d="m 669.342,236.573 h 30.994 V 185.03 h -30.994 z"
         id="path214" />
    </clipPath>
    <clipPath
       clipPathUnits="userSpaceOnUse"
       id="clipPath240">
      <path
         d="M 37.6724,247.035 H 68.6658 V 195.492 H 37.6724 Z"
         id="path238" />
    </clipPath>
    <clipPath
       clipPathUnits="userSpaceOnUse"
       id="clipPath264">
      <path
         d="m 102.103,236.858 h 86.714 v -81.761 h -86.714 z"
         id="path262" />
    </clipPath>
    <clipPath
       clipPathUnits="userSpaceOnUse"
       id="clipPath288">
      <path
         d="M 0,500 H 750 V 0 H 0 Z"
         id="path286" />
    </clipPath>
    <clipPath
       clipPathUnits="userSpaceOnUse"
       id="clipPath304">
      <path
         d="M 0,500 H 750 V 0 H 0 Z"
         id="path302" />
    </clipPath>
    <clipPath
       clipPathUnits="userSpaceOnUse"
       id="clipPath324">
      <path
         d="M 0,500 H 750 V 0 H 0 Z"
         id="path322" />
    </clipPath>
    <clipPath
       clipPathUnits="userSpaceOnUse"
       id="clipPath356">
      <path
         d="M 0,500 H 750 V 0 H 0 Z"
         id="path354" />
    </clipPath>
    <clipPath
       clipPathUnits="userSpaceOnUse"
       id="clipPath432">
      <path
         d="M 0,500 H 750 V 0 H 0 Z"
         id="path430" />
    </clipPath>
  </defs>
  <sodipodi:namedview
     id="namedview4"
     pagecolor="#ffffff"
     bordercolor="#000000"
     borderopacity="0.25"
     inkscape:showpageshadow="2"
     inkscape:pageopacity="0.0"
     inkscape:pagecheckerboard="0"
     inkscape:deskcolor="#d1d1d1" />
  <g
     id="g8"
     inkscape:groupmode="layer"
     inkscape:label="6325252"
     transform="matrix(1.3333333,0,0,-1.3333333,0,666.66667)">
    <g
       id="g10">
      <g
         id="g12"
         clip-path="url(#clipPath16)">
        <g
           id="g18"
           transform="translate(704.1847,308.3975)">
          <path
             d="m 0,0 c -7.88,28.378 -60.413,-2.488 -60.413,-2.488 l 13.747,24.936 c 1.633,2.472 3.099,5.092 4.354,7.899 6.904,15.439 6.813,31.954 -0.036,46.338 -1.882,8.731 -7.586,21.212 -23.318,34.888 -29.769,25.878 -129.581,43.579 -158.474,39.648 -28.893,-3.931 26.267,-16.086 26.267,-16.086 l -4.372,0.038 c -84.153,8.922 -168.824,10.07 -252.833,8.33 -21.066,-0.436 -42.196,-1.127 -62.822,-4.685 -5.935,-1.024 -12.317,-2.588 -15.85,-7.376 -15.683,-21.266 48.47,-23.343 58.532,-22.934 -44.063,-5.727 -93.023,-7.483 -134.002,-24.512 -5.718,-2.376 -11.382,-5.192 -15.69,-9.588 -4.308,-4.397 -7.115,-10.633 -6.144,-16.902 2.819,-18.196 27.889,-23.59 42.106,-27.632 0,0 -81.72,-54.339 -72.089,-81.921 3.981,-11.402 9.915,-23.405 20.912,-35.221 -6.268,-7.869 -11.788,-16.127 -16.053,-24.856 -2.61,-5.34 -6.029,-12.655 -3.108,-18.803 14.884,-31.325 240.613,-138.855 421.494,-108.165 48.052,8.153 95.908,21.634 138.031,45.479 41.919,23.728 84.636,62.924 95.197,112.347 0.347,1.629 0.602,3.208 0.776,4.745 C 2.765,-53.743 6.593,-23.742 0,0"
             style="fill:#5ae4a7;fill-opacity:1;fill-rule:nonzero;stroke:none"
             id="path20" />
        </g>
        <g
           id="g22">
          <g
             id="g24" />
          <g
             id="g36">
            <g
               clip-path="url(#clipPath28)"
               opacity="0.800003"
               id="g34">
              <g
                 transform="translate(704.1847,308.3975)"
                 id="g32">
                <path
                   d="m 0,0 c -7.88,28.378 -60.413,-2.488 -60.413,-2.488 l 13.747,24.936 c 1.633,2.472 3.099,5.092 4.354,7.899 6.904,15.439 6.813,31.954 -0.036,46.338 -1.882,8.731 -7.586,21.212 -23.318,34.888 -29.769,25.878 -129.581,43.579 -158.474,39.648 -28.893,-3.931 26.267,-16.086 26.267,-16.086 l -4.372,0.038 c -84.153,8.922 -168.824,10.07 -252.833,8.33 -21.066,-0.436 -42.196,-1.127 -62.822,-4.685 -5.935,-1.024 -12.317,-2.588 -15.85,-7.376 -15.683,-21.266 48.47,-23.343 58.532,-22.934 -44.063,-5.727 -93.023,-7.483 -134.002,-24.512 -5.718,-2.376 -11.382,-5.192 -15.69,-9.588 -4.308,-4.397 -5.994,-10.56 -6.144,-16.902 -0.397,-16.776 26.564,-23.005 42.106,-27.632 0,0 -81.72,-54.339 -72.089,-81.921 3.981,-11.402 9.915,-23.405 20.912,-35.221 -6.268,-7.869 -11.788,-16.127 -16.053,-24.856 -2.61,-5.34 -6.029,-12.655 -3.108,-18.803 14.884,-31.325 240.613,-138.855 421.494,-108.165 48.052,8.153 95.908,21.634 138.031,45.479 41.919,23.728 84.636,62.924 95.197,112.347 0.347,1.629 0.602,3.208 0.776,4.745 C 2.765,-53.743 6.593,-23.742 0,0"
                   style="fill:#ffffff;fill-opacity:1;fill-rule:nonzero;stroke:none"
                   id="path30" />
              </g>
            </g>
          </g>
        </g>
      </g>
    </g>
    <g
       id="g38">
      <g
         id="g40"
         clip-path="url(#clipPath44)">
        <g
           id="g46"
           transform="translate(557.9591,339.4053)">
          <path
             d="m 0,0 c 0,0 1.021,3.061 6.123,4.082 5.102,1.02 11.225,-4.592 11.225,-4.592 0,0 4.081,8.163 8.163,8.673 4.081,0.51 8.674,-3.061 8.674,-3.061"
             style="fill:none;stroke:#1a2e35;stroke-width:1;stroke-linecap:butt;stroke-linejoin:miter;stroke-miterlimit:10;stroke-dasharray:none;stroke-opacity:1"
             id="path48" />
        </g>
        <g
           id="g50"
           transform="translate(544.6935,320.0171)">
          <path
             d="m 0,0 c 0,0 1.021,3.062 6.123,4.082 5.102,1.02 11.225,-4.592 11.225,-4.592 0,0 4.081,8.163 8.163,8.674 4.082,0.51 8.674,-3.062 8.674,-3.062"
             style="fill:none;stroke:#1a2e35;stroke-width:1;stroke-linecap:butt;stroke-linejoin:miter;stroke-miterlimit:10;stroke-dasharray:none;stroke-opacity:1"
             id="path52" />
        </g>
        <g
           id="g54"
           transform="translate(593.1632,319.8955)">
          <path
             d="m 0,0 c 0,0 0.777,2.33 4.661,3.107 3.884,0.776 8.544,-3.496 8.544,-3.496 0,0 3.107,6.214 6.214,6.603 3.106,0.388 6.602,-2.331 6.602,-2.331"
             style="fill:none;stroke:#1a2e35;stroke-width:1;stroke-linecap:butt;stroke-linejoin:miter;stroke-miterlimit:10;stroke-dasharray:none;stroke-opacity:1"
             id="path56" />
        </g>
        <g
           id="g58"
           transform="translate(649.8575,299.353)">
          <path
             d="m 0,0 c 0,0 0.51,1.528 3.057,2.038 2.547,0.509 5.603,-2.292 5.603,-2.292 0,0 2.037,4.075 4.074,4.329 2.038,0.255 4.33,-1.528 4.33,-1.528"
             style="fill:none;stroke:#1a2e35;stroke-width:1;stroke-linecap:butt;stroke-linejoin:miter;stroke-miterlimit:10;stroke-dasharray:none;stroke-opacity:1"
             id="path60" />
        </g>
      </g>
    </g>
    <g
       id="g62">
      <g
         id="g64"
         clip-path="url(#clipPath68)">
        <g
           id="g70"
           transform="translate(378.1388,344.812)">
          <path
             d="m 0,0 c -5.272,23.687 -32.575,41.341 -56.375,37.958 -5.931,-0.843 -11.702,-3.062 -16.158,-7.162 -6.076,-5.591 -4.635,-11.938 -7.644,-18.865 -0.835,-1.923 -2.463,-3.631 -4.532,-3.987 -5.919,-1.014 -10.687,4.886 -16.681,4.929 -4.481,0.033 -10.209,-2.442 -12.708,-6.312 -2.327,-3.603 -0.706,-9.891 -4.894,-12.283 -4.685,-2.675 -10.382,2.414 -15.446,0.573 -6.293,-2.288 -3.433,-6.865 -5.721,-9.726 -2.288,-2.86 -6.864,-1.716 -13.157,-1.144 -6.293,0.572 -11.442,-6.865 -11.442,-6.865 H 33.753 c 0,0 1.716,2.861 -5.721,14.302 C 20.595,2.86 10.297,-5.149 5.721,-5.149 1.148,-5.149 0.002,-0.009 0,0 Z"
             style="fill:none;stroke:#1a2e35;stroke-width:1;stroke-linecap:butt;stroke-linejoin:miter;stroke-miterlimit:10;stroke-dasharray:none;stroke-opacity:1"
             id="path72" />
        </g>
        <g
           id="g74"
           transform="translate(433.4235,382.8555)">
          <path
             d="M 0,0 C -2.115,9.503 -13.069,16.585 -22.617,15.229 -24.997,14.89 -27.312,14 -29.1,12.355 c -2.438,-2.243 -1.859,-4.789 -3.066,-7.568 -0.335,-0.772 -0.988,-1.457 -1.819,-1.6 -2.374,-0.407 -4.287,1.96 -6.691,1.978 -1.798,0.013 -4.096,-0.98 -5.099,-2.533 -0.933,-1.445 -0.283,-3.967 -1.963,-4.927 -1.88,-1.074 -4.165,0.968 -6.197,0.229 -2.525,-0.918 -1.377,-2.754 -2.295,-3.901 -0.918,-1.148 -2.754,-0.689 -5.279,-0.459 -2.525,0.229 -4.59,-2.755 -4.59,-2.755 h 79.641 c 0,0 0.688,1.148 -2.296,5.738 C 8.262,1.147 4.131,-2.066 2.295,-2.066 0.46,-2.066 0,-0.003 0,0 Z"
             style="fill:none;stroke:#1a2e35;stroke-width:1;stroke-linecap:butt;stroke-linejoin:miter;stroke-miterlimit:10;stroke-dasharray:none;stroke-opacity:1"
             id="path76" />
        </g>
        <g
           id="g78"
           transform="translate(603.3253,266.3989)">
          <path
             d="M 0,0 C -2.115,9.502 -13.068,16.585 -22.617,15.228 -24.996,14.89 -27.312,14 -29.1,12.354 c -2.437,-2.242 -1.859,-4.789 -3.066,-7.568 -0.335,-0.771 -0.988,-1.456 -1.818,-1.599 -2.374,-0.407 -4.288,1.959 -6.693,1.977 -1.797,0.013 -4.095,-0.98 -5.098,-2.532 -0.934,-1.445 -0.283,-3.968 -1.963,-4.928 -1.879,-1.073 -4.165,0.969 -6.197,0.23 -2.525,-0.918 -1.378,-2.754 -2.295,-3.902 -0.918,-1.147 -2.754,-0.688 -5.279,-0.459 -2.524,0.23 -4.59,-2.754 -4.59,-2.754 h 79.64 c 0,0 0.688,1.148 -2.295,5.738 C 8.263,1.147 4.131,-2.066 2.295,-2.066 0.461,-2.066 0.001,-0.004 0,0 Z"
             style="fill:none;stroke:#1a2e35;stroke-width:1;stroke-linecap:butt;stroke-linejoin:miter;stroke-miterlimit:10;stroke-dasharray:none;stroke-opacity:1"
             id="path80" />
        </g>
        <g
           id="g82"
           transform="translate(475.5782,276.7974)">
          <path
             d="m 0,0 c -3.239,14.556 -20.017,25.404 -34.641,23.325 -3.645,-0.518 -7.191,-1.882 -9.929,-4.401 -3.734,-3.436 -2.848,-7.336 -4.698,-11.592 -0.513,-1.182 -1.513,-2.231 -2.785,-2.45 -3.636,-0.624 -6.567,3.002 -10.249,3.029 -2.754,0.02 -6.274,-1.501 -7.81,-3.879 -1.43,-2.214 -0.433,-6.078 -3.007,-7.548 -2.879,-1.644 -6.38,1.484 -9.491,0.352 -3.867,-1.406 -2.11,-4.218 -3.515,-5.976 -1.407,-1.758 -4.219,-1.055 -8.086,-0.703 -3.867,0.351 -7.031,-4.219 -7.031,-4.219 H 20.741 c 0,0 1.055,1.758 -3.515,8.789 C 12.655,1.757 6.328,-3.164 3.516,-3.164 0.706,-3.164 0.002,-0.005 0,0 Z"
             style="fill:none;stroke:#1a2e35;stroke-width:1;stroke-linecap:butt;stroke-linejoin:miter;stroke-miterlimit:10;stroke-dasharray:none;stroke-opacity:1"
             id="path84" />
        </g>
      </g>
    </g>
    <g
       id="g86">
      <g
         id="g88"
         clip-path="url(#clipPath92)">
        <g
           id="g94"
           transform="translate(504.2697,109.0996)">
          <path
             d="M 0,0 C 0,0 -7.292,7.555 -5.245,7.327 -3.198,7.1 0.631,1.451 0.631,1.451 c 0,0 0.054,12.453 1.873,9.725 C 4.322,8.447 2.088,1.399 2.088,1.399 c 0,0 5.2,8.113 5.188,6.788 C 7.24,4.087 3.27,0.881 3.27,0.881 c 0,0 8.327,6.169 6.962,3.667 -1.364,-2.501 -6.688,-4.865 -6.688,-4.865 0,0 9.599,1.936 6.188,0.572 C 6.321,-1.109 3.075,-2.046 3.075,-2.046 H 0.423 c 0,0 -9.065,4.548 -5.653,3.865 C -1.819,1.138 0,0 0,0"
             style="fill:#1a2e35;fill-opacity:1;fill-rule:nonzero;stroke:none"
             id="path96" />
        </g>
        <g
           id="g98"
           transform="translate(600.5577,132.7393)">
          <path
             d="m 0,0 c 0,0 -5.675,5.879 -4.082,5.702 1.593,-0.177 4.573,-4.573 4.573,-4.573 0,0 0.042,9.691 1.457,7.568 C 3.364,6.573 1.625,1.089 1.625,1.089 c 0,0 4.047,6.313 4.038,5.282 C 5.635,3.181 2.545,0.686 2.545,0.686 c 0,0 6.48,4.8 5.419,2.853 -1.063,-1.946 -5.206,-3.786 -5.206,-3.786 0,0 7.471,1.507 4.816,0.445 C 4.92,-0.863 2.394,-1.593 2.394,-1.593 H 0.33 c 0,0 -7.055,3.539 -4.4,3.009 C -1.416,0.885 0,0 0,0"
             style="fill:#1a2e35;fill-opacity:1;fill-rule:nonzero;stroke:none"
             id="path100" />
        </g>
        <g
           id="g102"
           transform="translate(689.9532,153.8291)">
          <path
             d="m 0,0 c 0,0 -5.674,5.879 -4.082,5.702 1.593,-0.177 4.573,-4.573 4.573,-4.573 0,0 0.042,9.691 1.457,7.568 C 3.364,6.573 1.625,1.088 1.625,1.088 c 0,0 4.047,6.313 4.038,5.282 C 5.635,3.181 2.545,0.685 2.545,0.685 c 0,0 6.48,4.8 5.419,2.854 -1.063,-1.946 -5.206,-3.786 -5.206,-3.786 0,0 7.471,1.507 4.816,0.445 C 4.92,-0.864 2.394,-1.593 2.394,-1.593 H 0.33 c 0,0 -7.055,3.539 -4.4,3.008 C -1.416,0.885 0,0 0,0"
             style="fill:#1a2e35;fill-opacity:1;fill-rule:nonzero;stroke:none"
             id="path104" />
        </g>
        <g
           id="g106"
           transform="translate(576.0216,105.6582)">
          <path
             d="M 0,0 C 0,0 -6.777,7.022 -4.875,6.812 -2.973,6.6 0.588,1.349 0.588,1.349 c 0,0 0.049,11.577 1.74,9.04 C 4.02,7.853 1.941,1.3 1.941,1.3 c 0,0 4.834,7.542 4.824,6.309 C 6.731,3.799 3.04,0.818 3.04,0.818 c 0,0 7.741,5.735 6.473,3.41 -1.268,-2.326 -6.218,-4.523 -6.218,-4.523 0,0 8.924,1.8 5.753,0.531 C 5.877,-1.032 2.86,-1.903 2.86,-1.903 H 0.395 c 0,0 -8.427,4.228 -5.256,3.593 C -1.69,1.057 0,0 0,0"
             style="fill:#5ae4a7;fill-opacity:1;fill-rule:nonzero;stroke:none"
             id="path108" />
        </g>
        <g
           id="g110"
           transform="translate(441.8937,136.124)">
          <path
             d="m 0,0 -59.968,67.231 -13.133,-10.505 -65.742,98.98 -57.232,-12.752 -17.113,31.97 -16.636,0.876 -31.519,62.163 -47.146,-43.016 -22.732,8.118 -82.807,-84.431"
             style="fill:none;stroke:#1a2e35;stroke-width:1;stroke-linecap:butt;stroke-linejoin:miter;stroke-miterlimit:10;stroke-dasharray:none;stroke-opacity:1"
             id="path112" />
        </g>
        <g
           id="g114"
           transform="translate(453.1378,123.5176)">
          <path
             d="M 0,0 -6.287,7.049"
             style="fill:none;stroke:#1a2e35;stroke-width:1;stroke-linecap:butt;stroke-linejoin:miter;stroke-miterlimit:10;stroke-dasharray:none;stroke-opacity:1"
             id="path116" />
        </g>
        <g
           id="g118"
           transform="translate(215.088,270.8584)">
          <path
             d="M 0,0 -4.957,-1.343"
             style="fill:none;stroke:#1a2e35;stroke-width:1;stroke-linecap:butt;stroke-linejoin:miter;stroke-miterlimit:10;stroke-dasharray:none;stroke-opacity:1"
             id="path120" />
        </g>
        <g
           id="g122"
           transform="translate(245.7023,279.1494)">
          <path
             d="M 0,0 -25.033,-6.78"
             style="fill:none;stroke:#1a2e35;stroke-width:1;stroke-linecap:butt;stroke-linejoin:miter;stroke-miterlimit:10;stroke-dasharray:none;stroke-opacity:1"
             id="path124" />
        </g>
        <g
           id="g126"
           transform="translate(151.2628,307.9263)">
          <path
             d="M 0,0 14.017,20.692 13.07,27.79 29.16,60.442"
             style="fill:none;stroke:#1a2e35;stroke-width:1;stroke-linecap:butt;stroke-linejoin:miter;stroke-miterlimit:10;stroke-dasharray:none;stroke-opacity:1"
             id="path128" />
        </g>
        <g
           id="g130"
           transform="translate(145.4044,299.2788)">
          <path
             d="M 0,0 3.517,5.191"
             style="fill:none;stroke:#1a2e35;stroke-width:1;stroke-linecap:butt;stroke-linejoin:miter;stroke-miterlimit:10;stroke-dasharray:none;stroke-opacity:1"
             id="path132" />
        </g>
        <g
           id="g134"
           transform="translate(123.6539,287.0386)">
          <path
             d="M 0,0 -22.731,-30.822"
             style="fill:none;stroke:#1a2e35;stroke-width:1;stroke-linecap:butt;stroke-linejoin:miter;stroke-miterlimit:10;stroke-dasharray:none;stroke-opacity:1"
             id="path136" />
        </g>
        <g
           id="g138"
           transform="translate(111.8063,335.7163)">
          <path
             d="m 0,0 5.679,-12.777 12.777,-10.41 -1.42,-18.456 -3.097,-4.198"
             style="fill:none;stroke:#1a2e35;stroke-width:1;stroke-linecap:butt;stroke-linejoin:miter;stroke-miterlimit:10;stroke-dasharray:none;stroke-opacity:1"
             id="path140" />
        </g>
        <g
           id="g142"
           transform="translate(228.7052,311.0479)">
          <path
             d="m 0,0 -11.845,-11.296 -4.259,7.098"
             style="fill:none;stroke:#1a2e35;stroke-width:1;stroke-linecap:butt;stroke-linejoin:miter;stroke-miterlimit:10;stroke-dasharray:none;stroke-opacity:1"
             id="path144" />
        </g>
        <g
           id="g146"
           transform="translate(707.0079,184.5635)">
          <path
             d="m 0,0 -92.017,64.905 -27.933,-39.436 -34.506,11.503 -53.402,-74.764 -34.506,7.394 -17.253,-14.789"
             style="fill:none;stroke:#1a2e35;stroke-width:1;stroke-linecap:butt;stroke-linejoin:miter;stroke-miterlimit:10;stroke-dasharray:none;stroke-opacity:1"
             id="path148" />
        </g>
        <g
           id="g150"
           transform="translate(614.9913,249.4683)">
          <path
             d="m 0,0 -10.939,-48.092 -12.903,5.644"
             style="fill:none;stroke:#1a2e35;stroke-width:1;stroke-linecap:butt;stroke-linejoin:miter;stroke-miterlimit:10;stroke-dasharray:none;stroke-opacity:1"
             id="path152" />
        </g>
        <g
           id="g154"
           transform="translate(552.8468,218.7129)">
          <path
             d="m 0,0 -27.014,-78.621 -18.546,3.225"
             style="fill:none;stroke:#1a2e35;stroke-width:1;stroke-linecap:butt;stroke-linejoin:miter;stroke-miterlimit:10;stroke-dasharray:none;stroke-opacity:1"
             id="path156" />
        </g>
      </g>
    </g>
    <g
       id="g158">
      <g
         id="g160"
         clip-path="url(#clipPath164)">
        <g
           id="g166"
           transform="translate(551.5997,224.3301)">
          <path
             d="m 0,0 c -23.946,0 -43.357,-19.279 -43.357,-43.062 0,-11.026 4.174,-21.083 11.037,-28.701 3.139,0.455 8.862,0.768 15.186,-1.383 8.382,-2.851 13.605,-7.523 14.748,-8.615 H 1.5 c 1.144,1.092 6.366,5.764 14.748,8.615 6.886,2.342 13.061,1.763 15.962,1.26 6.928,7.633 11.146,17.739 11.146,28.824 C 43.356,-19.279 23.945,0 0,0"
             style="fill:#5ae4a7;fill-opacity:1;fill-rule:nonzero;stroke:none"
             id="path168" />
        </g>
        <g
           id="g170"
           transform="translate(571.7814,163.9961)">
          <path
             d="m 0,0 c -1.334,-0.646 -2.655,-1.312 -3.96,-2.009 -1.307,-0.714 -2.587,-1.489 -3.788,-2.337 -0.453,-0.314 -0.897,-0.638 -1.34,-0.963 l 7.103,13.231 -9.746,-15.261 c -0.988,-0.795 -1.957,-1.605 -2.91,-2.432 -1.574,-1.37 -3.104,-2.766 -4.603,-4.206 L -19.739,0.378 -9.543,15.902 -19.814,2.55 -20.257,15.396 -20.99,1.021 -20.992,1.019 -20.99,1.018 -21.725,-13.391 c -1.301,1.233 -2.626,2.438 -3.985,3.62 -1.069,0.928 -2.157,1.84 -3.271,2.727 l -9.221,15.745 6.772,-13.889 c -0.388,0.283 -0.775,0.568 -1.173,0.842 -1.201,0.848 -2.48,1.623 -3.787,2.337 -1.304,0.697 -2.627,1.363 -3.961,2.009 -2.671,1.281 -5.393,2.48 -8.204,3.471 2.732,-1.157 5.349,-2.512 7.907,-3.944 1.276,-0.719 2.538,-1.46 3.779,-2.226 1.222,-0.774 2.395,-1.591 3.512,-2.493 2.246,-1.779 4.344,-3.72 6.364,-5.724 1.765,-1.752 3.482,-3.565 5.12,-5.404 l -0.933,-18.287 h 4.273 l -0.605,17.544 c 1.83,2.094 3.778,4.159 5.781,6.147 2.019,2.004 4.118,3.945 6.364,5.724 1.116,0.902 2.291,1.719 3.512,2.493 1.241,0.766 2.502,1.507 3.779,2.226 C 2.855,0.959 5.474,2.314 8.204,3.471 5.394,2.48 2.672,1.281 0,0"
             style="fill:#1a2e35;fill-opacity:1;fill-rule:nonzero;stroke:none"
             id="path172" />
        </g>
        <g
           id="g174"
           transform="translate(218.7077,165.2422)">
          <path
             d="m 0,0 c 0,-12.372 -6.938,-13.307 -15.497,-13.307 -8.558,0 -15.496,0.935 -15.496,13.307 0,12.373 6.938,38.236 15.496,38.236 C -6.938,38.236 0,12.373 0,0"
             style="fill:#5ae4a7;fill-opacity:1;fill-rule:nonzero;stroke:none"
             id="path176" />
        </g>
        <g
           id="g178"
           transform="translate(208.4508,159.6289)">
          <path
             d="M 0,0 -2.563,-0.177 4.113,4.324 -0.655,1.914 0,3.797 -2.18,1.143 -4.737,-0.149 -4.94,8.735 l 1.354,3.288 -1.387,-1.849 -0.118,5.152 4.247,5.662 -4.276,-4.378 -0.259,11.339 -0.229,-7.258 -2.724,3.039 2.68,-4.432 -0.363,-11.496 -2.371,1.551 -2.161,3.831 0.866,-2.985 -4.241,2.774 7.857,-6.778 -1.19,-37.73 h 3.235 l -0.683,29.915 0.747,0.504 z"
             style="fill:#1a2e35;fill-opacity:1;fill-rule:nonzero;stroke:none"
             id="path180" />
        </g>
        <g
           id="g182"
           transform="translate(635.5167,207.8525)">
          <path
             d="m 0,0 c 0,-24.177 -13.557,-26.002 -30.28,-26.002 -16.724,0 -30.281,1.825 -30.281,26.002 0,24.176 13.557,74.713 30.281,74.713 C -13.557,74.713 0,24.176 0,0"
             style="fill:#5ae4a7;fill-opacity:1;fill-rule:nonzero;stroke:none"
             id="path184" />
        </g>
        <g
           id="g186">
          <g
             id="g188" />
          <g
             id="g200">
            <g
               clip-path="url(#clipPath192)"
               opacity="0.309998"
               id="g198">
              <g
                 transform="translate(635.5167,207.8525)"
                 id="g196">
                <path
                   d="m 0,0 c 0,-24.177 -13.557,-26.002 -30.28,-26.002 -16.724,0 -30.281,1.825 -30.281,26.002 0,24.176 13.557,74.713 30.281,74.713 C -13.557,74.713 0,24.176 0,0"
                   style="fill:#ffffff;fill-opacity:1;fill-rule:nonzero;stroke:none"
                   id="path194" />
              </g>
            </g>
          </g>
        </g>
        <g
           id="g202"
           transform="translate(615.4747,196.8828)">
          <path
             d="M 0,0 -5.009,-0.346 8.037,8.449 -1.279,3.74 0,7.419 -4.26,2.233 l -4.996,-2.525 -0.396,17.361 2.645,6.425 -2.71,-3.613 -0.229,10.066 8.298,11.065 -8.356,-8.555 -0.507,22.156 -0.446,-14.181 -5.323,5.937 5.237,-8.661 -0.709,-22.462 -4.635,3.03 -4.221,7.485 1.692,-5.831 -8.287,5.419 15.352,-13.242 -2.325,-73.727 h 6.322 l -1.336,58.456 1.46,0.983 z"
             style="fill:#1a2e35;fill-opacity:1;fill-rule:nonzero;stroke:none"
             id="path204" />
        </g>
        <g
           id="g206"
           transform="translate(700.3361,198.3369)">
          <path
             d="m 0,0 c 0,-12.373 -6.938,-13.307 -15.497,-13.307 -8.559,0 -15.497,0.934 -15.497,13.307 0,12.373 6.938,38.236 15.497,38.236 C -6.938,38.236 0,12.373 0,0"
             style="fill:#5ae4a7;fill-opacity:1;fill-rule:nonzero;stroke:none"
             id="path208" />
        </g>
        <g
           id="g210">
          <g
             id="g212" />
          <g
             id="g224">
            <g
               clip-path="url(#clipPath216)"
               opacity="0.5"
               id="g222">
              <g
                 transform="translate(700.3361,198.3369)"
                 id="g220">
                <path
                   d="m 0,0 c 0,-12.373 -6.938,-13.307 -15.497,-13.307 -8.559,0 -15.497,0.934 -15.497,13.307 0,12.373 6.938,38.236 15.497,38.236 C -6.938,38.236 0,12.373 0,0"
                   style="fill:#ffffff;fill-opacity:1;fill-rule:nonzero;stroke:none"
                   id="path218" />
              </g>
            </g>
          </g>
        </g>
        <g
           id="g226"
           transform="translate(690.0792,192.7227)">
          <path
             d="M 0,0 -2.563,-0.177 4.112,4.324 -0.655,1.914 0,3.797 -2.181,1.144 -4.737,-0.149 -4.94,8.735 l 1.353,3.288 -1.387,-1.848 -0.117,5.151 4.246,5.662 -4.275,-4.377 -0.26,11.338 -0.228,-7.257 -2.725,3.038 2.681,-4.432 -0.363,-11.495 -2.372,1.551 -2.161,3.83 0.867,-2.984 -4.242,2.773 7.858,-6.777 -1.19,-37.731 h 3.234 l -0.683,29.916 0.747,0.504 z"
             style="fill:#1a2e35;fill-opacity:1;fill-rule:nonzero;stroke:none"
             id="path228" />
        </g>
        <g
           id="g230"
           transform="translate(68.6657,208.7988)">
          <path
             d="m 0,0 c 0,-12.372 -6.938,-13.307 -15.497,-13.307 -8.558,0 -15.496,0.935 -15.496,13.307 0,12.373 6.938,38.236 15.496,38.236 C -6.938,38.236 0,12.373 0,0"
             style="fill:#5ae4a7;fill-opacity:1;fill-rule:nonzero;stroke:none"
             id="path232" />
        </g>
        <g
           id="g234">
          <g
             id="g236" />
          <g
             id="g248">
            <g
               clip-path="url(#clipPath240)"
               opacity="0.5"
               id="g246">
              <g
                 transform="translate(68.6657,208.7988)"
                 id="g244">
                <path
                   d="m 0,0 c 0,-12.372 -6.938,-13.307 -15.497,-13.307 -8.558,0 -15.496,0.935 -15.496,13.307 0,12.373 6.938,38.236 15.496,38.236 C -6.938,38.236 0,12.373 0,0"
                   style="fill:#ffffff;fill-opacity:1;fill-rule:nonzero;stroke:none"
                   id="path242" />
              </g>
            </g>
          </g>
        </g>
        <g
           id="g250"
           transform="translate(58.4088,203.1855)">
          <path
             d="M 0,0 -2.563,-0.177 4.113,4.324 -0.655,1.914 0,3.797 -2.18,1.143 -4.737,-0.149 -4.94,8.735 l 1.354,3.288 -1.387,-1.849 -0.117,5.152 4.246,5.662 -4.276,-4.378 -0.259,11.339 -0.229,-7.258 -2.724,3.039 2.68,-4.432 -0.362,-11.496 -2.372,1.551 -2.161,3.831 0.866,-2.985 -4.241,2.774 7.857,-6.777 -1.19,-37.731 h 3.235 l -0.683,29.915 0.747,0.504 z"
             style="fill:#1a2e35;fill-opacity:1;fill-rule:nonzero;stroke:none"
             id="path252" />
        </g>
        <g
           id="g254"
           transform="translate(145.4596,236.8574)">
          <path
             d="m 0,0 c -23.945,0 -43.357,-19.279 -43.357,-43.062 0,-11.026 4.174,-21.083 11.037,-28.701 3.14,0.455 8.862,0.768 15.187,-1.383 8.381,-2.851 13.604,-7.523 14.748,-8.615 H 1.5 c 1.144,1.092 6.367,5.764 14.748,8.615 6.886,2.342 13.061,1.763 15.962,1.26 6.928,7.633 11.147,17.739 11.147,28.824 C 43.357,-19.279 23.945,0 0,0"
             style="fill:#5ae4a7;fill-opacity:1;fill-rule:nonzero;stroke:none"
             id="path256" />
        </g>
        <g
           id="g258">
          <g
             id="g260" />
          <g
             id="g272">
            <g
               clip-path="url(#clipPath264)"
               opacity="0.330002"
               id="g270">
              <g
                 transform="translate(145.4596,236.8574)"
                 id="g268">
                <path
                   d="m 0,0 c -23.945,0 -43.357,-19.279 -43.357,-43.062 0,-11.026 4.174,-21.083 11.037,-28.701 3.14,0.455 8.862,0.768 15.187,-1.383 8.381,-2.851 13.604,-7.523 14.748,-8.615 H 1.5 c 1.144,1.092 6.367,5.764 14.748,8.615 6.886,2.342 13.061,1.763 15.962,1.26 6.928,7.633 11.147,17.739 11.147,28.824 C 43.357,-19.279 23.945,0 0,0"
                   style="fill:#ffffff;fill-opacity:1;fill-rule:nonzero;stroke:none"
                   id="path266" />
              </g>
            </g>
          </g>
        </g>
        <g
           id="g274"
           transform="translate(165.6417,176.5234)">
          <path
             d="m 0,0 c -1.333,-0.646 -2.656,-1.312 -3.96,-2.009 -1.307,-0.714 -2.587,-1.489 -3.788,-2.337 -0.454,-0.314 -0.897,-0.638 -1.34,-0.963 l 7.102,13.231 -9.745,-15.261 c -0.988,-0.795 -1.958,-1.605 -2.91,-2.432 -1.574,-1.37 -3.104,-2.766 -4.604,-4.206 L -19.74,0.378 -9.543,15.903 -19.814,2.55 -20.257,15.396 -20.99,1.021 -20.992,1.019 -20.99,1.018 -21.725,-13.391 c -1.302,1.233 -2.626,2.438 -3.985,3.62 -1.069,0.928 -2.157,1.84 -3.272,2.727 l -9.22,15.745 6.772,-13.889 c -0.389,0.283 -0.776,0.568 -1.173,0.842 -1.201,0.848 -2.48,1.623 -3.787,2.337 -1.305,0.697 -2.627,1.363 -3.961,2.009 -2.671,1.281 -5.393,2.48 -8.204,3.471 2.731,-1.157 5.349,-2.513 7.907,-3.944 1.276,-0.719 2.538,-1.46 3.778,-2.226 1.222,-0.774 2.396,-1.591 3.512,-2.493 2.247,-1.779 4.345,-3.72 6.365,-5.724 1.765,-1.752 3.482,-3.565 5.119,-5.404 l -0.932,-18.287 h 4.273 l -0.605,17.544 c 1.83,2.094 3.778,4.159 5.78,6.147 2.02,2.004 4.118,3.945 6.365,5.724 1.116,0.902 2.29,1.719 3.512,2.493 1.241,0.766 2.502,1.507 3.779,2.226 C 2.855,0.958 5.473,2.314 8.204,3.471 5.393,2.48 2.671,1.281 0,0"
             style="fill:#1a2e35;fill-opacity:1;fill-rule:nonzero;stroke:none"
             id="path276" />
        </g>
      </g>
    </g>
    <g
       id="g278"
       transform="translate(239.8058,172.7998)">
      <path
         d="m 0,0 h 26.031 v 72.215 z m 26.031,-64.448 v 39.677 H -25.611 V 0.63 L 18.684,105.593 H 56.47 V 0 H 72.845 V -24.771 H 56.47 v -39.677 z"
         style="fill:#1a2e35;fill-opacity:1;fill-rule:nonzero;stroke:none"
         id="path280" />
    </g>
    <g
       id="g282">
      <g
         id="g284"
         clip-path="url(#clipPath288)">
        <g
           id="g290"
           transform="translate(373.5299,136.8115)">
          <path
             d="m 0,0 c 3.779,0 6.508,1.187 8.187,3.569 1.68,2.378 2.798,5.212 3.359,8.502 0.558,3.287 0.84,6.331 0.84,9.132 v 74.943 c 0,3.078 -0.246,6.298 -0.735,9.658 -0.492,3.358 -1.575,6.261 -3.254,8.712 -1.68,2.446 -4.48,3.673 -8.397,3.673 -3.92,0 -6.754,-1.227 -8.502,-3.673 -1.751,-2.451 -2.871,-5.354 -3.359,-8.712 -0.492,-3.36 -0.735,-6.58 -0.735,-9.658 V 21.203 c 0,-2.801 0.279,-5.845 0.84,-9.132 0.558,-3.29 1.748,-6.124 3.568,-8.502 C -6.37,1.187 -3.641,0 0,0 m 0,-28.55 c -10.217,0 -18.684,2.099 -25.401,6.298 -6.718,4.199 -11.756,9.972 -15.115,17.319 -3.359,7.347 -5.038,15.849 -5.038,25.506 v 76.203 c 0,9.936 1.607,18.648 4.828,26.137 3.218,7.485 8.187,13.33 14.905,17.529 6.717,4.198 15.324,6.297 25.821,6.297 10.355,0 18.857,-2.099 25.506,-6.297 6.645,-4.199 11.579,-10.044 14.8,-17.529 3.218,-7.489 4.828,-16.201 4.828,-26.137 V 20.573 C 45.134,10.916 43.455,2.414 40.096,-4.933 36.737,-12.28 31.699,-18.053 24.981,-22.252 18.264,-26.451 9.935,-28.55 0,-28.55"
             style="fill:#1a2e35;fill-opacity:1;fill-rule:nonzero;stroke:none"
             id="path292" />
        </g>
        <g
           id="g294"
           transform="translate(461.9083,172.7998)">
          <path
             d="m 0,0 h 26.031 v 72.215 z m 26.031,-64.448 v 39.677 H -25.61 V 0.63 L 18.685,105.593 H 56.47 V 0 H 72.845 V -24.771 H 56.47 v -39.677 z"
             style="fill:#1a2e35;fill-opacity:1;fill-rule:nonzero;stroke:none"
             id="path296" />
        </g>
      </g>
    </g>
    <g
       id="g298">
      <g
         id="g300"
         clip-path="url(#clipPath304)">
        <g
           id="g306"
           transform="translate(720.1085,190.3604)">
          <path
             d="m 0,0 c -65.377,-42.857 -194.494,-72.027 -343.098,-72.027 -153.162,0 -285.629,30.985 -348.938,76.009 V -168.362 H 0 Z"
             style="fill:#ffffff;fill-opacity:1;fill-rule:nonzero;stroke:none"
             id="path308" />
        </g>
        <g
           id="g310"
           transform="translate(705.9064,181.8115)">
          <path
             d="m 0,0 c -68.82,-38.142 -190.396,-63.479 -328.896,-63.479 -153.162,0 -285.629,30.986 -348.937,76.01"
             style="fill:none;stroke:#1a2e35;stroke-width:1;stroke-linecap:butt;stroke-linejoin:miter;stroke-miterlimit:10;stroke-dasharray:none;stroke-opacity:1"
             id="path312" />
        </g>
        <g
           id="g314"
           transform="translate(720.4122,190.5566)">
          <path
             d="M 0,0 C -2.947,-1.939 -6.024,-3.852 -9.228,-5.733"
             style="fill:none;stroke:#1a2e35;stroke-width:1;stroke-linecap:butt;stroke-linejoin:miter;stroke-miterlimit:10;stroke-dasharray:none;stroke-opacity:1"
             id="path316" />
        </g>
      </g>
    </g>
    <g
       id="g318">
      <g
         id="g320"
         clip-path="url(#clipPath324)">
        <g
           id="g326"
           transform="translate(678.3693,200.3477)">
          <path
             d="m 0,0 c 0,-25.28 -14.176,-27.189 -31.663,-27.189 -17.487,0 -31.664,1.909 -31.664,27.189 0,25.28 14.177,78.126 31.664,78.126 C -14.176,78.126 0,25.28 0,0"
             style="fill:#5ae4a7;fill-opacity:1;fill-rule:nonzero;stroke:none"
             id="path328" />
        </g>
        <g
           id="g330"
           transform="translate(657.4122,188.877)">
          <path
             d="M 0,0 -5.237,-0.36 8.404,8.836 -1.338,3.911 0,7.759 -4.454,2.336 l -5.225,-2.641 -0.415,18.154 2.767,6.718 -2.834,-3.778 -0.24,10.526 8.676,11.57 -8.736,-8.946 -0.529,23.168 -0.468,-14.828 -5.566,6.209 5.476,-9.057 -0.741,-23.489 -4.846,3.169 -4.415,7.826 1.771,-6.096 -8.667,5.666 16.053,-13.847 -2.43,-77.094 h 6.61 l -1.397,61.125 1.527,1.03 z"
             style="fill:#1a2e35;fill-opacity:1;fill-rule:nonzero;stroke:none"
             id="path332" />
        </g>
        <g
           id="g334"
           transform="translate(644.5724,123.7627)">
          <path
             d="m 0,0 c 0,0 -11.687,12.108 -8.406,11.744 3.28,-0.364 9.419,-9.419 9.419,-9.419 0,0 0.085,19.961 3.001,15.587 2.915,-4.373 -0.667,-15.67 -0.667,-15.67 0,0 8.335,13.003 8.316,10.879 -0.058,-6.57 -6.422,-11.71 -6.422,-11.71 0,0 13.347,9.888 11.16,5.878 -2.186,-4.009 -10.72,-7.798 -10.72,-7.798 0,0 15.385,3.104 9.919,0.917 C 10.133,-1.778 4.931,-3.28 4.931,-3.28 H 0.679 c 0,0 -14.529,7.289 -9.062,6.196 C -2.916,1.822 0,0 0,0"
             style="fill:#1a2e35;fill-opacity:1;fill-rule:nonzero;stroke:none"
             id="path336" />
        </g>
        <g
           id="g338"
           transform="translate(84.7252,138.7969)">
          <path
             d="m 0,0 c 0,0 -10.108,10.474 -7.271,10.158 2.837,-0.315 8.146,-8.146 8.146,-8.146 0,0 0.074,17.264 2.596,13.481 C 5.993,11.71 2.894,1.939 2.894,1.939 c 0,0 7.21,11.248 7.193,9.41 C 10.038,5.666 4.533,1.221 4.533,1.221 c 0,0 11.544,8.551 9.653,5.084 -1.892,-3.467 -9.273,-6.744 -9.273,-6.744 0,0 13.308,2.684 8.579,0.793 C 8.763,-1.538 4.264,-2.837 4.264,-2.837 H 0.587 c 0,0 -12.566,6.305 -7.838,5.359 C -2.522,1.576 0,0 0,0"
             style="fill:#1a2e35;fill-opacity:1;fill-rule:nonzero;stroke:none"
             id="path340" />
        </g>
        <g
           id="g342"
           transform="translate(121.2609,214.1289)">
          <path
             d="m 0,0 c 0,-25.309 -14.191,-27.219 -31.698,-27.219 -17.506,0 -31.698,1.91 -31.698,27.219 0,25.308 14.192,78.211 31.698,78.211 C -14.191,78.211 0,25.308 0,0"
             style="fill:#5ae4a7;fill-opacity:1;fill-rule:nonzero;stroke:none"
             id="path344" />
        </g>
        <g
           id="g346"
           transform="translate(100.2804,202.6465)">
          <path
             d="M 0,0 -5.243,-0.362 8.414,8.845 -1.339,3.914 0,7.766 -4.459,2.338 l -5.23,-2.644 -0.415,18.173 2.77,6.727 -2.837,-3.782 -0.241,10.537 8.686,11.582 -8.746,-8.955 -0.53,23.193 -0.468,-14.845 -5.573,6.216 5.482,-9.067 -0.741,-23.514 -4.851,3.172 -4.42,7.836 1.772,-6.105 -8.676,5.673 16.072,-13.861 -2.434,-77.179 h 6.617 l -1.398,61.192 1.528,1.031 z"
             style="fill:#1a2e35;fill-opacity:1;fill-rule:nonzero;stroke:none"
             id="path348" />
        </g>
      </g>
    </g>
    <g
       id="g350">
      <g
         id="g352"
         clip-path="url(#clipPath356)">
        <g
           id="g358"
           transform="translate(195.3893,112.4863)">
          <path
             d="m 0,0 c 0,0 -10.108,10.474 -7.271,10.158 2.837,-0.315 8.146,-8.146 8.146,-8.146 0,0 0.074,17.263 2.596,13.481 C 5.993,11.71 2.895,1.939 2.895,1.939 c 0,0 7.209,11.247 7.193,9.41 C 10.038,5.666 4.533,1.221 4.533,1.221 c 0,0 11.544,8.551 9.653,5.084 -1.892,-3.468 -9.273,-6.744 -9.273,-6.744 0,0 13.308,2.683 8.579,0.793 C 8.764,-1.538 4.264,-2.837 4.264,-2.837 H 0.587 c 0,0 -12.566,6.305 -7.837,5.358 C -2.522,1.576 0,0 0,0"
             style="fill:#1a2e35;fill-opacity:1;fill-rule:nonzero;stroke:none"
             id="path360" />
        </g>
        <g
           id="g362"
           transform="translate(249.0397,89.5361)">
          <path
             d="m 0,0 c 0,0 -10.108,10.473 -7.271,10.158 2.837,-0.315 8.146,-8.147 8.146,-8.147 0,0 0.074,17.264 2.596,13.482 C 5.993,11.71 2.894,1.939 2.894,1.939 c 0,0 7.21,11.247 7.193,9.41 C 10.038,5.666 4.533,1.221 4.533,1.221 c 0,0 11.544,8.551 9.653,5.084 C 12.294,2.837 4.913,-0.44 4.913,-0.44 c 0,0 13.308,2.684 8.579,0.793 -4.728,-1.891 -9.228,-3.19 -9.228,-3.19 H 0.587 c 0,0 -12.566,6.305 -7.837,5.358 C -2.522,1.576 0,0 0,0"
             style="fill:#1a2e35;fill-opacity:1;fill-rule:nonzero;stroke:none"
             id="path364" />
        </g>
        <g
           id="g366"
           transform="translate(392.9425,104.9463)">
          <path
             d="M 0,0 C 0,0 -7.291,7.555 -5.245,7.327 -3.198,7.1 0.632,1.45 0.632,1.45 c 0,0 0.053,12.454 1.872,9.725 C 4.323,8.446 2.088,1.398 2.088,1.398 c 0,0 5.201,8.113 5.189,6.788 C 7.241,4.087 3.27,0.88 3.27,0.88 c 0,0 8.327,6.169 6.963,3.668 -1.364,-2.502 -6.689,-4.865 -6.689,-4.865 0,0 9.6,1.936 6.188,0.571 C 6.322,-1.11 3.076,-2.047 3.076,-2.047 H 0.424 c 0,0 -9.065,4.548 -5.654,3.865 C -1.819,1.137 0,0 0,0"
             style="fill:#1a2e35;fill-opacity:1;fill-rule:nonzero;stroke:none"
             id="path368" />
        </g>
        <g
           id="g370"
           transform="translate(675.9698,123.0225)">
          <path
             d="m 0,0 c 0,0 -5.675,5.879 -4.082,5.702 1.593,-0.177 4.573,-4.573 4.573,-4.573 0,0 0.042,9.691 1.457,7.568 C 3.364,6.573 1.625,1.088 1.625,1.088 c 0,0 4.047,6.313 4.038,5.282 C 5.635,3.181 2.545,0.686 2.545,0.686 c 0,0 6.48,4.799 5.418,2.853 -1.062,-1.946 -5.205,-3.786 -5.205,-3.786 0,0 7.471,1.507 4.816,0.445 C 4.92,-0.864 2.394,-1.593 2.394,-1.593 H 0.329 c 0,0 -7.054,3.539 -4.399,3.008 C -1.416,0.885 0,0 0,0"
             style="fill:#1a2e35;fill-opacity:1;fill-rule:nonzero;stroke:none"
             id="path372" />
        </g>
        <g
           id="g374"
           transform="translate(293.9025,104.9063)">
          <path
             d="m 0,0 c 0,0 -10.108,10.473 -7.271,10.157 2.837,-0.315 8.146,-8.146 8.146,-8.146 0,0 0.074,17.264 2.596,13.481 C 5.993,11.71 2.895,1.938 2.895,1.938 c 0,0 7.209,11.248 7.193,9.411 C 10.038,5.665 4.533,1.221 4.533,1.221 c 0,0 11.544,8.551 9.653,5.084 C 12.294,2.837 4.913,-0.44 4.913,-0.44 c 0,0 13.308,2.684 8.579,0.793 C 8.764,-1.539 4.264,-2.838 4.264,-2.838 H 0.587 c 0,0 -12.566,6.305 -7.837,5.359 C -2.522,1.576 0,0 0,0"
             style="fill:#5ae4a7;fill-opacity:1;fill-rule:nonzero;stroke:none"
             id="path376" />
        </g>
        <g
           id="g378"
           transform="translate(220.9611,111.8633)">
          <path
             d="m 0,0 c 0,0 -6.778,7.023 -4.875,6.812 1.902,-0.211 5.462,-5.463 5.462,-5.463 0,0 0.05,11.577 1.741,9.041 C 4.019,7.853 1.941,1.301 1.941,1.301 c 0,0 4.834,7.542 4.824,6.309 C 6.731,3.8 3.04,0.819 3.04,0.819 c 0,0 7.741,5.735 6.473,3.41 -1.268,-2.326 -6.218,-4.524 -6.218,-4.524 0,0 8.924,1.801 5.753,0.532 C 5.877,-1.031 2.86,-1.902 2.86,-1.902 H 0.394 c 0,0 -8.427,4.228 -5.256,3.593 C -1.691,1.058 0,0 0,0"
             style="fill:#5ae4a7;fill-opacity:1;fill-rule:nonzero;stroke:none"
             id="path380" />
        </g>
        <g
           id="g382"
           transform="translate(136.2628,84.123)">
          <path
             d="m 0,0 c 0,0 -6.778,7.023 -4.875,6.812 1.902,-0.211 5.462,-5.463 5.462,-5.463 0,0 0.05,11.577 1.741,9.041 C 4.019,7.853 1.941,1.301 1.941,1.301 c 0,0 4.834,7.542 4.824,6.309 C 6.731,3.8 3.04,0.819 3.04,0.819 c 0,0 7.741,5.735 6.473,3.41 -1.268,-2.326 -6.219,-4.524 -6.219,-4.524 0,0 8.925,1.8 5.754,0.532 C 5.877,-1.031 2.859,-1.902 2.859,-1.902 H 0.394 c 0,0 -8.427,4.227 -5.256,3.593 C -1.691,1.058 0,0 0,0"
             style="fill:#5ae4a7;fill-opacity:1;fill-rule:nonzero;stroke:none"
             id="path384" />
        </g>
        <g
           id="g386"
           transform="translate(363.0304,82.7627)">
          <path
             d="m 0,0 c 0,0 -6.778,7.022 -4.875,6.812 1.902,-0.211 5.462,-5.463 5.462,-5.463 0,0 0.05,11.577 1.741,9.04 C 4.019,7.853 1.941,1.3 1.941,1.3 c 0,0 4.834,7.542 4.824,6.31 C 6.731,3.799 3.04,0.818 3.04,0.818 c 0,0 7.741,5.735 6.473,3.41 -1.269,-2.326 -6.219,-4.523 -6.219,-4.523 0,0 8.924,1.8 5.753,0.531 C 5.876,-1.031 2.859,-1.902 2.859,-1.902 H 0.394 c 0,0 -8.427,4.227 -5.256,3.593 C -1.691,1.057 0,0 0,0"
             style="fill:#5ae4a7;fill-opacity:1;fill-rule:nonzero;stroke:none"
             id="path388" />
        </g>
        <g
           id="g390"
           transform="translate(473.0031,82.3955)">
          <path
             d="m 0,0 c 0,0 -6.778,7.023 -4.875,6.812 1.902,-0.211 5.463,-5.463 5.463,-5.463 0,0 0.049,11.577 1.74,9.041 C 4.02,7.853 1.941,1.301 1.941,1.301 c 0,0 4.834,7.541 4.824,6.309 C 6.731,3.8 3.04,0.818 3.04,0.818 c 0,0 7.741,5.735 6.473,3.41 -1.269,-2.326 -6.218,-4.523 -6.218,-4.523 0,0 8.924,1.8 5.753,0.531 C 5.877,-1.031 2.859,-1.902 2.859,-1.902 H 0.395 c 0,0 -8.427,4.227 -5.256,3.593 C -1.69,1.057 0,0 0,0"
             style="fill:#5ae4a7;fill-opacity:1;fill-rule:nonzero;stroke:none"
             id="path392" />
        </g>
        <g
           id="g394"
           transform="translate(677.4698,104.3652)">
          <path
             d="m 0,0 c 0,0 -10.32,10.692 -7.424,10.371 2.897,-0.322 8.318,-8.317 8.318,-8.317 0,0 0.075,17.626 2.65,13.763 C 6.118,11.955 2.955,1.979 2.955,1.979 c 0,0 7.36,11.483 7.344,9.608 C 10.248,5.784 4.628,1.246 4.628,1.246 c 0,0 11.786,8.732 9.854,5.191 -1.93,-3.541 -9.466,-6.886 -9.466,-6.886 0,0 13.587,2.74 8.758,0.809 -4.827,-1.931 -9.42,-3.256 -9.42,-3.256 H 0.6 c 0,0 -12.83,6.436 -8.003,5.47 C -2.575,1.609 0,0 0,0"
             style="fill:#5ae4a7;fill-opacity:1;fill-rule:nonzero;stroke:none"
             id="path396" />
        </g>
        <g
           id="g398"
           transform="translate(62.5377,104.3652)">
          <path
             d="m 0,0 c 0,0 -10.32,10.692 -7.423,10.371 2.896,-0.322 8.317,-8.317 8.317,-8.317 0,0 0.075,17.626 2.65,13.763 C 6.119,11.955 2.955,1.979 2.955,1.979 c 0,0 7.361,11.483 7.344,9.608 C 10.249,5.784 4.628,1.246 4.628,1.246 c 0,0 11.787,8.732 9.855,5.191 -1.931,-3.541 -9.467,-6.886 -9.467,-6.886 0,0 13.587,2.74 8.759,0.809 C 8.947,-1.571 4.354,-2.896 4.354,-2.896 H 0.6 c 0,0 -12.83,6.436 -8.002,5.47 C -2.575,1.609 0,0 0,0"
             style="fill:#5ae4a7;fill-opacity:1;fill-rule:nonzero;stroke:none"
             id="path400" />
        </g>
        <g
           id="g402"
           transform="translate(113.4464,119.4629)">
          <path
             d="m 0,0 c 0,0 -10.562,18.213 -7.549,19.619 3.012,1.406 9.238,-12.451 9.238,-12.451 0,0 -1.205,26.107 1.607,23.697 2.812,-2.409 5.422,-20.886 5.422,-20.886 0,0 5.624,20.083 7.431,15.866 1.808,-4.217 -1.444,-16.979 -1.444,-16.979 0,0 8.071,15.372 8.875,10.352 0.803,-5.022 -3.816,-13.255 -3.816,-13.255 0,0 10.644,10.643 11.447,6.427 C 32.015,8.172 28.4,3.954 28.4,3.954 c 0,0 14.058,7.632 10.644,3.414 -3.414,-4.217 -8.435,-9.639 -8.435,-9.639 0,0 13.455,4.82 11.849,2.008 -1.606,-2.811 -7.631,-5.824 -7.631,-5.824 0,0 11.045,2.008 9.84,0.2 -1.205,-1.806 -4.01,-3.582 -4.01,-3.582 H -9.356 c 0,0 -13.255,4.787 -8.034,5.19 5.222,0.401 10.042,-1.808 10.042,-1.808 0,0 -16.267,11.046 -8.636,11.849 7.632,0.803 13.858,-8.836 13.858,-8.836 0,0 -10.845,15.262 -7.03,12.852 z"
             style="fill:#5ae4a7;fill-opacity:1;fill-rule:nonzero;stroke:none"
             id="path404" />
        </g>
        <g
           id="g406"
           transform="translate(114.1271,114.2813)">
          <path
             d="M 0,0 C 0,0 -13.636,14.129 -9.809,13.703 -5.981,13.278 1.181,2.714 1.181,2.714 c 0,0 0.099,23.29 3.502,18.186 C 8.084,15.797 3.904,2.616 3.904,2.616 c 0,0 9.726,15.172 9.704,12.694 C 13.541,7.644 6.115,1.647 6.115,1.647 c 0,0 15.573,11.537 13.022,6.859 -2.552,-4.678 -12.51,-9.099 -12.51,-9.099 0,0 17.953,3.621 11.574,1.07 C 11.822,-2.075 5.752,-3.827 5.752,-3.827 h -4.96 c 0,0 -16.952,8.506 -10.573,7.229 C -3.402,2.127 0,0 0,0"
             style="fill:#1a2e35;fill-opacity:1;fill-rule:nonzero;stroke:none"
             id="path408" />
        </g>
        <g
           id="g410"
           transform="translate(114.1271,114.2813)">
          <path
             d="M 0,0 C 0,0 -13.636,14.129 -9.809,13.703 -5.981,13.278 1.181,2.714 1.181,2.714 c 0,0 0.099,23.29 3.502,18.186 C 8.084,15.797 3.904,2.616 3.904,2.616 c 0,0 9.726,15.172 9.704,12.694 C 13.541,7.644 6.115,1.647 6.115,1.647 c 0,0 15.573,11.537 13.022,6.859 -2.552,-4.678 -12.51,-9.099 -12.51,-9.099 0,0 17.953,3.621 11.574,1.07 C 11.822,-2.075 5.752,-3.827 5.752,-3.827 h -4.96 c 0,0 -16.952,8.506 -10.573,7.229 C -3.402,2.127 0,0 0,0 Z"
             style="fill:none;stroke:#1a2e35;stroke-width:1;stroke-linecap:butt;stroke-linejoin:miter;stroke-miterlimit:10;stroke-dasharray:none;stroke-opacity:1"
             id="path412" />
        </g>
        <g
           id="g414"
           transform="translate(563.2023,87.418)">
          <path
             d="m 0,0 c 0,0 -19.962,34.426 -14.269,37.083 5.695,2.656 17.462,-23.535 17.462,-23.535 0,0 -2.278,49.347 3.036,44.792 5.315,-4.556 10.25,-39.478 10.25,-39.478 0,0 10.628,37.959 14.044,29.988 3.416,-7.971 -2.73,-32.092 -2.73,-32.092 0,0 15.257,29.055 16.775,19.565 1.519,-9.489 -7.212,-25.052 -7.212,-25.052 0,0 20.119,20.118 21.637,12.146 1.518,-7.971 -5.314,-15.942 -5.314,-15.942 0,0 26.571,14.423 20.118,6.453 C 67.344,5.956 57.854,-4.293 57.854,-4.293 c 0,0 25.433,9.11 22.396,3.796 -3.037,-5.315 -14.425,-11.008 -14.425,-11.008 0,0 20.878,3.796 18.601,0.379 -2.279,-3.416 -7.58,-6.77 -7.58,-6.77 h -94.531 c 0,0 -25.052,9.048 -15.183,9.807 9.869,0.759 18.979,-3.416 18.979,-3.416 0,0 -30.747,20.877 -16.322,22.396 14.424,1.518 26.191,-16.703 26.191,-16.703 0,0 -20.498,28.85 -13.285,24.294 z"
             style="fill:#5ae4a7;fill-opacity:1;fill-rule:nonzero;stroke:none"
             id="path416" />
        </g>
        <g
           id="g418"
           transform="translate(564.4884,77.625)">
          <path
             d="M 0,0 C 0,0 -25.773,26.704 -18.54,25.9 -11.306,25.097 2.232,5.128 2.232,5.128 c 0,0 0.188,44.021 6.619,34.376 6.43,-9.646 -1.471,-34.56 -1.471,-34.56 0,0 18.383,28.677 18.342,23.993 C 25.595,14.446 11.559,3.113 11.559,3.113 c 0,0 29.434,21.805 24.612,12.963 C 31.348,7.234 12.527,-1.122 12.527,-1.122 c 0,0 33.932,6.845 21.875,2.022 -12.057,-4.823 -23.53,-8.134 -23.53,-8.134 H 1.497 c 0,0 -32.042,16.076 -19.984,13.665 C -6.431,4.019 0,0 0,0"
             style="fill:#1a2e35;fill-opacity:1;fill-rule:nonzero;stroke:none"
             id="path420" />
        </g>
        <g
           id="g422"
           transform="translate(564.4884,77.625)">
          <path
             d="M 0,0 C 0,0 -25.773,26.704 -18.54,25.9 -11.306,25.097 2.232,5.128 2.232,5.128 c 0,0 0.188,44.021 6.619,34.376 6.43,-9.646 -1.471,-34.56 -1.471,-34.56 0,0 18.383,28.677 18.342,23.993 C 25.595,14.446 11.559,3.113 11.559,3.113 c 0,0 29.434,21.805 24.612,12.963 C 31.348,7.234 12.527,-1.122 12.527,-1.122 c 0,0 33.932,6.845 21.875,2.022 -12.057,-4.823 -23.53,-8.134 -23.53,-8.134 H 1.497 c 0,0 -32.042,16.076 -19.984,13.665 C -6.431,4.019 0,0 0,0 Z"
             style="fill:none;stroke:#1a2e35;stroke-width:1;stroke-linecap:butt;stroke-linejoin:miter;stroke-miterlimit:10;stroke-dasharray:none;stroke-opacity:1"
             id="path424" />
        </g>
      </g>
    </g>
    <g
       id="g426">
      <g
         id="g428"
         clip-path="url(#clipPath432)">
        <g
           id="g434"
           transform="translate(147.8468,118.4316)">
          <path
             d="m 0,0 c 0,0 2.042,1.846 3.793,1.846 1.751,0 7.1,-2.572 7.1,-2.572 0,0 2.14,-3.295 2.334,-3.494 0.194,-0.197 2.82,-1.318 3.015,-1.78 0.195,-0.461 0.584,-1.978 0.584,-1.978 H 0.486 l -3.015,7.912 z"
             style="fill:#ffffff;fill-opacity:1;fill-rule:nonzero;stroke:none"
             id="path436" />
        </g>
        <g
           id="g438"
           transform="translate(147.8468,118.4316)">
          <path
             d="m 0,0 c 0,0 2.042,1.846 3.793,1.846 1.751,0 7.1,-2.572 7.1,-2.572 0,0 2.14,-3.295 2.334,-3.494 0.194,-0.197 2.82,-1.318 3.015,-1.78 0.195,-0.461 0.584,-1.978 0.584,-1.978 H 0.486 l -3.015,7.912 z"
             style="fill:none;stroke:#1a2e35;stroke-width:1;stroke-linecap:butt;stroke-linejoin:miter;stroke-miterlimit:10;stroke-dasharray:none;stroke-opacity:1"
             id="path440" />
        </g>
        <g
           id="g442"
           transform="translate(151.6398,120.2773)">
          <path
             d="m 0,0 -0.097,-1.557 c 0,0 4.182,-2.43 4.085,-3.306 C 3.891,-5.738 3.015,-7.78 3.015,-7.78 l 2.14,-2.238 H -6.224 l 0.875,6.711 c 0,0 2.432,3.501 5.349,3.307"
             style="fill:#1a2e35;fill-opacity:1;fill-rule:nonzero;stroke:none"
             id="path444" />
        </g>
        <g
           id="g446"
           transform="translate(126.5475,119.4023)">
          <path
             d="m 0,0 c 0,0 8.17,12.254 10.018,12.448 1.848,0.195 5.738,-1.361 7.197,-3.889 1.458,-2.53 2.82,-7.49 2.917,-7.782 0.097,-0.292 0.487,-0.486 2.723,-4.085 2.237,-3.597 2.14,-5.64 2.14,-5.64 H -6.613 c 0,0 0.68,3.21 1.847,5.057 1.167,1.848 3.891,2.529 3.891,2.529 z"
             style="fill:#ffffff;fill-opacity:1;fill-rule:nonzero;stroke:none"
             id="path448" />
        </g>
        <g
           id="g450"
           transform="translate(126.5475,119.4023)">
          <path
             d="m 0,0 c 0,0 8.17,12.254 10.018,12.448 1.848,0.195 5.738,-1.361 7.197,-3.889 1.458,-2.53 2.82,-7.49 2.917,-7.782 0.097,-0.292 0.487,-0.486 2.723,-4.085 2.237,-3.597 2.14,-5.64 2.14,-5.64 H -6.613 c 0,0 0.68,3.21 1.847,5.057 1.167,1.848 3.891,2.529 3.891,2.529 z"
             style="fill:none;stroke:#1a2e35;stroke-width:1;stroke-linecap:butt;stroke-linejoin:miter;stroke-miterlimit:10;stroke-dasharray:none;stroke-opacity:1"
             id="path452" />
        </g>
        <g
           id="g454"
           transform="translate(139.0939,110.6484)">
          <path
             d="m 0,0 c 0,0 -0.875,2.14 -0.973,2.432 -0.097,0.292 -0.097,3.112 -0.389,4.279 -0.291,1.167 -2.723,4.766 -2.723,4.766 l 1.751,5.057 -0.875,0.681 1.459,3.598 -0.817,0.378 C -4.482,20.848 -12.546,8.754 -12.546,8.754 l -0.875,-1.362 c 0,0 -2.724,-0.681 -3.891,-2.529 C -18.31,3.283 -18.951,0.714 -19.116,0 Z"
             style="fill:#1a2e35;fill-opacity:1;fill-rule:nonzero;stroke:none"
             id="path456" />
        </g>
        <g
           id="g458"
           transform="translate(462.839,115.3828)">
          <path
             d="m 0,0 c 0,0 1.281,1.158 2.379,1.158 1.098,0 4.451,-1.612 4.451,-1.612 0,0 1.342,-2.067 1.464,-2.191 0.122,-0.124 1.769,-0.827 1.891,-1.116 0.122,-0.29 0.365,-1.24 0.365,-1.24 H 0.306 l -1.891,4.96 z"
             style="fill:#ffffff;fill-opacity:1;fill-rule:nonzero;stroke:none"
             id="path460" />
        </g>
        <g
           id="g462"
           transform="translate(462.839,115.3828)">
          <path
             d="m 0,0 c 0,0 1.281,1.158 2.379,1.158 1.098,0 4.451,-1.612 4.451,-1.612 0,0 1.342,-2.067 1.464,-2.191 0.122,-0.124 1.769,-0.827 1.891,-1.116 0.122,-0.29 0.365,-1.24 0.365,-1.24 H 0.306 l -1.891,4.96 z"
             style="fill:none;stroke:#1a2e35;stroke-width:1;stroke-linecap:butt;stroke-linejoin:miter;stroke-miterlimit:10;stroke-dasharray:none;stroke-opacity:1"
             id="path464" />
        </g>
        <g
           id="g466"
           transform="translate(465.2179,116.541)">
          <path
             d="m 0,0 -0.062,-0.976 c 0,0 2.623,-1.525 2.562,-2.073 -0.061,-0.549 -0.609,-1.83 -0.609,-1.83 l 1.34,-1.402 h -7.134 l 0.549,4.208 c 0,0 1.524,2.195 3.354,2.073"
             style="fill:#1a2e35;fill-opacity:1;fill-rule:nonzero;stroke:none"
             id="path468" />
        </g>
        <g
           id="g470"
           transform="translate(449.4845,115.9922)">
          <path
             d="m 0,0 c 0,0 5.122,7.684 6.281,7.806 1.158,0.121 3.598,-0.855 4.513,-2.44 0.914,-1.586 1.769,-4.695 1.829,-4.879 0.062,-0.182 0.305,-0.304 1.708,-2.56 1.402,-2.257 1.341,-3.537 1.341,-3.537 H -4.146 c 0,0 0.426,2.011 1.158,3.171 0.732,1.158 2.439,1.585 2.439,1.585 z"
             style="fill:#ffffff;fill-opacity:1;fill-rule:nonzero;stroke:none"
             id="path472" />
        </g>
        <g
           id="g474"
           transform="translate(449.4845,115.9922)">
          <path
             d="m 0,0 c 0,0 5.122,7.684 6.281,7.806 1.158,0.121 3.598,-0.855 4.513,-2.44 0.914,-1.586 1.769,-4.695 1.829,-4.879 0.062,-0.182 0.305,-0.304 1.708,-2.56 1.402,-2.257 1.341,-3.537 1.341,-3.537 H -4.146 c 0,0 0.426,2.011 1.158,3.171 0.732,1.158 2.439,1.585 2.439,1.585 z"
             style="fill:none;stroke:#1a2e35;stroke-width:1;stroke-linecap:butt;stroke-linejoin:miter;stroke-miterlimit:10;stroke-dasharray:none;stroke-opacity:1"
             id="path476" />
        </g>
        <g
           id="g478"
           transform="translate(457.3507,110.5039)">
          <path
             d="M 0,0 C 0,0 -0.549,1.341 -0.609,1.524 -0.67,1.707 -0.67,3.476 -0.854,4.207 -1.036,4.939 -2.561,7.195 -2.561,7.195 l 1.098,3.171 -0.549,0.427 0.914,2.257 -0.511,0.237 C -2.811,13.071 -7.866,5.488 -7.866,5.488 L -8.415,4.635 c 0,0 -1.707,-0.428 -2.439,-1.586 C -11.479,2.058 -11.882,0.447 -11.985,0 Z"
             style="fill:#1a2e35;fill-opacity:1;fill-rule:nonzero;stroke:none"
             id="path480" />
        </g>
        <g
           id="g482"
           transform="translate(628.2228,85.4688)">
          <path
             d="m 0,0 c 0,0 3.86,3.488 7.169,3.488 3.309,0 13.42,-4.859 13.42,-4.859 0,0 4.044,-6.231 4.411,-6.605 0.368,-0.374 5.331,-2.492 5.699,-3.364 0.367,-0.872 1.103,-3.738 1.103,-3.738 H 0.919 l -5.698,14.953 z"
             style="fill:#ffffff;fill-opacity:1;fill-rule:nonzero;stroke:none"
             id="path484" />
        </g>
        <g
           id="g486"
           transform="translate(628.2228,85.4688)">
          <path
             d="m 0,0 c 0,0 3.86,3.488 7.169,3.488 3.309,0 13.42,-4.859 13.42,-4.859 0,0 4.044,-6.231 4.411,-6.605 0.368,-0.374 5.331,-2.492 5.699,-3.364 0.367,-0.872 1.103,-3.738 1.103,-3.738 H 0.919 l -5.698,14.953 z"
             style="fill:none;stroke:#1a2e35;stroke-width:1;stroke-linecap:butt;stroke-linejoin:miter;stroke-miterlimit:10;stroke-dasharray:none;stroke-opacity:1"
             id="path488" />
        </g>
        <g
           id="g490"
           transform="translate(635.3917,88.957)">
          <path
             d="m 0,0 -0.184,-2.941 c 0,0 7.905,-4.596 7.721,-6.25 -0.183,-1.655 -1.838,-5.515 -1.838,-5.515 l 4.044,-4.228 h -21.508 l 1.655,12.684 c 0,0 4.595,6.618 10.11,6.25"
             style="fill:#1a2e35;fill-opacity:1;fill-rule:nonzero;stroke:none"
             id="path492" />
        </g>
        <g
           id="g494"
           transform="translate(587.965,87.3027)">
          <path
             d="m 0,0 c 0,0 15.441,23.162 18.934,23.53 3.493,0.367 10.845,-2.574 13.603,-7.353 2.757,-4.78 5.331,-14.155 5.515,-14.706 0.183,-0.552 0.919,-0.919 5.147,-7.721 4.228,-6.802 4.044,-10.662 4.044,-10.662 H -12.5 c 0,0 1.286,6.066 3.492,9.559 2.206,3.493 7.354,4.78 7.354,4.78 z"
             style="fill:#ffffff;fill-opacity:1;fill-rule:nonzero;stroke:none"
             id="path496" />
        </g>
        <g
           id="g498"
           transform="translate(587.965,87.3027)">
          <path
             d="m 0,0 c 0,0 15.441,23.162 18.934,23.53 3.493,0.367 10.845,-2.574 13.603,-7.353 2.757,-4.78 5.331,-14.155 5.515,-14.706 0.183,-0.552 0.919,-0.919 5.147,-7.721 4.228,-6.802 4.044,-10.662 4.044,-10.662 H -12.5 c 0,0 1.286,6.066 3.492,9.559 2.206,3.493 7.354,4.78 7.354,4.78 z"
             style="fill:none;stroke:#1a2e35;stroke-width:1;stroke-linecap:butt;stroke-linejoin:miter;stroke-miterlimit:10;stroke-dasharray:none;stroke-opacity:1"
             id="path500" />
        </g>
        <g
           id="g502"
           transform="translate(611.6779,70.7588)">
          <path
             d="m 0,0 c 0,0 -1.654,4.044 -1.838,4.596 -0.183,0.55 -0.183,5.882 -0.735,8.088 -0.552,2.206 -5.148,9.007 -5.148,9.007 l 3.31,9.559 -1.654,1.287 2.756,6.802 -1.544,0.715 c -3.619,-0.651 -18.86,-23.51 -18.86,-23.51 l -1.654,-2.573 c 0,0 -5.148,-1.287 -7.354,-4.78 C -34.607,6.204 -35.818,1.348 -36.13,0 Z"
             style="fill:#1a2e35;fill-opacity:1;fill-rule:nonzero;stroke:none"
             id="path504" />
        </g>
      </g>
    </g>
  </g>
</svg>
